<?xml version="1.0" encoding="UTF-8"?>
<svg width="67px" height="8px" viewBox="0 0 67 8" version="1.1" xmlns="http://www.w3.org/2000/svg" xmlns:xlink="http://www.w3.org/1999/xlink">
    <!-- Generator: Sketch 41 (35326) - http://www.bohemiancoding.com/sketch -->
    <title>Fill 61 Copy</title>
    <desc>Created with Sketch.</desc>
    <defs></defs>
    <g id="Page-1" stroke="none" stroke-width="1" fill="none" fill-rule="evenodd">
        <g id="Desktop-HD-Copy-7" transform="translate(-678.000000, -3580.000000)" fill="#FFFFFF">
            <g id="Group-25" transform="translate(0.000000, 3331.000000)">
                <g id="Group-32" transform="translate(269.000000, 224.000000)">
                    <g id="Group-13" transform="translate(182.000000, 25.000000)">
                        <path d="M286.521993,2.5605105 C286.545438,2.69663788 286.579899,2.91369813 286.623681,3.12875651 C286.630742,3.16278836 286.676219,3.19796413 286.712092,3.21426509 C286.744576,3.22913615 286.819429,3.22799223 286.821971,3.21884081 C286.961509,2.70321546 287.187481,2.20246117 287.118842,1.64994416 C287.110933,1.58645618 287.009811,1.52439811 286.940042,1.48150083 C286.844286,1.4220166 286.778189,1.46634379 286.718024,1.56157576 C286.539224,1.84412587 286.601366,2.17071718 286.521993,2.5605105 M287.98375,2.8542139 C287.946182,3.00492635 287.92302,3.04925355 287.926975,3.09072092 C287.934601,3.17451361 287.931494,3.28776244 287.981208,3.33008776 C288.022448,3.36497755 288.164245,3.34553078 288.208592,3.29862975 C288.4501,3.04496382 288.678897,2.77900066 288.903174,2.50931974 C288.973225,2.42495508 288.931421,2.34773997 288.847246,2.27738843 C288.458009,1.95194104 288.175827,2.00713554 288.069055,2.43982614 C288.026685,2.6125592 287.997026,2.78843806 287.98375,2.8542139 M291.223342,3.58060789 C291.204982,3.5425723 291.196791,3.48623387 291.166849,3.46878898 C290.979857,3.35811398 290.793431,3.24400721 290.594575,3.16021452 C290.539777,3.13704999 290.404194,3.19167253 290.373687,3.24801096 C290.182176,3.60548832 290.155059,4.00071529 290.162968,4.3985161 C290.163816,4.43254794 290.204491,4.47859102 290.237822,4.49546396 C290.273977,4.51319483 290.339792,4.52291822 290.365213,4.50232752 C290.636945,4.28097754 290.908959,4.05848363 291.166849,3.82111866 C291.216563,3.77536156 291.206112,3.6626847 291.223342,3.58060789 M289.042429,4.58840807 C289.042429,4.39422637 289.068416,4.24294195 288.918992,4.20176056 C288.854873,4.18431566 288.747818,4.25123542 288.687088,4.30871778 C288.04448,4.9164293 287.543952,5.68743647 286.694862,6.05778301 C286.580181,6.10754386 286.546285,6.43670902 286.622269,6.55453355 C286.716894,6.70095628 286.850218,6.66549453 286.974785,6.60944208 C287.421362,6.40954074 287.863985,6.20048798 288.31141,6.00258851 C288.619014,5.86703309 288.814763,5.65454855 288.873233,5.30822448 C288.918145,5.04340526 288.995258,4.78401968 289.042429,4.58840807 M250.164499,3.78479896 C247.907886,3.84199534 245.650707,3.87087951 243.394941,3.95038248 C240.282458,4.06019952 237.171388,4.21091198 234.05947,4.33445615 C231.939287,4.41882081 229.818539,4.48974432 227.698073,4.55580613 C227.526617,4.56095381 227.336236,4.51033501 227.185682,4.42825821 C227.090209,4.37620951 227.006034,4.21920545 227.000385,4.1048127 C226.994453,3.98698816 227.057725,3.81682893 227.148114,3.7541989 C227.288782,3.65667908 227.475773,3.59061726 227.646947,3.58060789 C229.359533,3.48537593 231.072119,3.38671217 232.785835,3.32322419 C237.116307,3.16278836 241.447062,3.00235252 245.778946,2.87737843 C248.711499,2.79272779 251.645746,2.7609838 254.579429,2.72066036 C256.610918,2.69234815 258.642689,2.67547522 260.67446,2.67833504 C264.873022,2.68434066 269.07356,2.64144337 273.270426,2.74239498 C276.69814,2.82475776 280.128961,2.94286828 283.546789,3.26917362 C284.040538,3.31607465 284.531462,3.39500565 285.024646,3.44877024 C285.339595,3.48337405 285.522914,3.3152167 285.533366,2.9694646 C285.553421,2.28396601 285.55568,1.59846742 285.572063,0.912968837 C285.5763,0.731942301 285.596638,0.55005782 285.626862,0.371605121 C285.65878,0.182285111 285.948872,-0.0313433597 286.139536,0.00383241265 C286.358164,0.044155859 286.583571,0.0873391241 286.785251,0.176565473 C287.735746,0.598102777 288.685111,1.02278588 289.623743,1.47034754 C290.847381,2.05432255 292.061981,2.65860229 293.277429,3.26088014 C293.478261,3.36040184 293.67062,3.48366003 293.852245,3.61635563 C294.042909,3.75620077 294.049971,4.21491572 293.868063,4.36191041 C293.728525,4.47458728 293.582208,4.58755012 293.422333,4.66447925 C291.712007,5.49039495 289.997726,6.30773118 288.28627,7.13050108 C287.878956,7.32611269 287.48294,7.54631874 287.071388,7.73106304 C286.826208,7.84145205 286.563798,7.91723725 286.303365,7.98615889 C286.04378,8.05422258 285.713861,7.86261471 285.674316,7.60094129 C285.612738,7.19713486 285.574041,6.78760879 285.55681,6.37922666 C285.535625,5.87818639 285.558223,5.37514425 285.537885,4.873818 C285.529976,4.68392602 285.407669,4.52863786 285.204294,4.50146958 C284.399551,4.39422637 283.595938,4.25380926 282.78724,4.20347645 C280.715076,4.0747846 278.63924,4.00958073 276.567076,3.87974495 C271.786355,3.57974995 266.999984,3.66154077 262.215307,3.63437249 C259.371166,3.61807152 256.527026,3.66754639 253.19648,3.6909969 C252.510089,3.71244555 251.337294,3.75505685 250.164499,3.78479896 Z" id="Fill-61-Copy" transform="translate(260.500000, 4.000000) scale(1, -1) translate(-260.500000, -4.000000) "></path>
                    </g>
                </g>
            </g>
        </g>
    </g>
</svg>