<?xml version="1.0" encoding="UTF-8"?>
<svg width="26px" height="33px" viewBox="0 0 26 33" version="1.1" xmlns="http://www.w3.org/2000/svg" xmlns:xlink="http://www.w3.org/1999/xlink">
    <!-- Generator: Sketch 41 (35326) - http://www.bohemiancoding.com/sketch -->
    <title>Fill 222</title>
    <desc>Created with Sketch.</desc>
    <defs></defs>
    <g id="Page-1" stroke="none" stroke-width="1" fill="none" fill-rule="evenodd">
        <g id="Desktop-HD-Copy-7" transform="translate(-268.000000, -2911.000000)" fill="#303F9F">
            <g id="Group-18" transform="translate(267.000000, 2724.000000)">
                <g id="Group-5">
                    <g id="Group-28" transform="translate(0.000000, 187.000000)">
                        <path d="M20,16.0052318 L8,16.0052318 C7.448,16.0052318 7,16.4532318 7,17.0052318 C7,17.5582318 7.448,18.0052318 8,18.0052318 L20,18.0052318 C20.552,18.0052318 21,17.5582318 21,17.0052318 C21,16.4532318 20.552,16.0052318 20,16.0052318 L20,16.0052318 Z M20,22.0052318 L8,22.0052318 C7.448,22.0052318 7,22.4522318 7,23.0052318 C7,23.5582318 7.448,24.0052318 8,24.0052318 L20,24.0052318 C20.552,24.0052318 21,23.5582318 21,23.0052318 C21,22.4522318 20.552,22.0052318 20,22.0052318 L20,22.0052318 Z M21,8.00523183 C19.896,8.00523183 19,7.10923183 19,6.00523183 L19,2.00523183 L25,8.00523183 L21,8.00523183 L21,8.00523183 Z M25,28.0052318 C25,29.1092318 24.104,30.0052318 23,30.0052318 L5,30.0052318 C3.896,30.0052318 3,29.1092318 3,28.0052318 L3,4.00523183 C3,2.90123183 3.896,2.00523183 5,2.00523183 L16.972,2.00523183 C16.954,4.40023183 17,6.00523183 17,6.00523183 C17,8.21423183 18.791,10.0052318 21,10.0052318 L25,10.0052318 L25,28.0052318 L25,28.0052318 Z M19,0.00523183391 L19,0.0332318339 C18.872,0.0332318339 18.338,-0.0157681661 17,0.00523183391 L5,0.00523183391 C2.791,0.00523183391 1,1.79623183 1,4.00523183 L1,28.0052318 C1,30.2142318 2.791,32.0052318 5,32.0052318 L23,32.0052318 C25.209,32.0052318 27,30.2142318 27,28.0052318 L27,8.00523183 L19,0.00523183391 L19,0.00523183391 Z" id="Fill-222"></path>
                    </g>
                </g>
            </g>
        </g>
    </g>
</svg>