<?xml version="1.0" encoding="UTF-8"?>
<svg width="28px" height="32px" viewBox="0 0 28 32" version="1.1" xmlns="http://www.w3.org/2000/svg" xmlns:xlink="http://www.w3.org/1999/xlink">
    <!-- Generator: Sketch 41 (35326) - http://www.bohemiancoding.com/sketch -->
    <title>23971</title>
    <desc>Created with Sketch.</desc>
    <defs></defs>
    <g id="Page-1" stroke="none" stroke-width="1" fill="none" fill-rule="evenodd">
        <g id="Desktop-HD-Copy-7" transform="translate(-717.000000, -2795.000000)" fill="#303F9F">
            <g id="Group-18" transform="translate(267.000000, 2724.000000)">
                <g id="Group-5">
                    <g id="Group-29" transform="translate(448.000000, 71.000000)">
                        <g id="Group-30">
                            <g id="23971" transform="translate(2.000000, 0.000000)">
                                <path d="M21.1645091,12 L16.9476156,12 L13.9638234,16.40725 L10.9795948,12 L6.76282597,12 L11.817226,19.577 L6.11414026,28 L14.2878545,28 L14.2878545,25.13825 L12.4003948,25.13825 L13.9636987,22.7946875 L17.4357818,28 L21.8131948,28 L16.1100468,19.577 L21.1645091,12 Z M26.1641766,6.2321875 L21.7111481,1.76775 C20.7415481,0.7955 18.825974,0 17.4545455,0 L2.49350649,0 C1.12207792,0 0,1.125 0,2.5 L0,29.5 C0,30.875 1.12207792,32 2.49350649,32 L25.4337662,32 C26.8051948,32 27.9272727,30.875 27.9272727,29.5 L27.9272727,10.5 C27.9272727,9.125 27.1337766,7.2044375 26.1641766,6.2321875 Z M24.7536623,7.6464375 C24.8511584,7.74425 24.9484675,7.864375 25.0428468,8 L19.9480519,8 L19.9480519,2.892 C20.0833247,2.9866875 20.2031377,3.0841875 20.3006338,3.182 L24.7536623,7.6464375 Z M25.9324675,29.5 C25.9324675,29.771 25.7040623,30 25.4337662,30 L2.49350649,30 C2.22321039,30 1.99480519,29.771 1.99480519,29.5 L1.99480519,2.5 C1.99480519,2.229 2.22321039,2 2.49350649,2 L17.4545455,2 C17.6051532,2 17.7741506,2.0190625 17.9532468,2.05325 L17.9532468,10 L25.8793558,10 C25.9134545,10.1795625 25.9324675,10.3489375 25.9324675,10.5 L25.9324675,29.5 Z" id="Shape"></path>
                            </g>
                        </g>
                    </g>
                </g>
            </g>
        </g>
    </g>
</svg>