<?xml version="1.0" encoding="UTF-8"?>
<svg width="101px" height="20px" viewBox="0 0 101 20" version="1.1" xmlns="http://www.w3.org/2000/svg" xmlns:xlink="http://www.w3.org/1999/xlink">
    <!-- Generator: Sketch 41 (35326) - http://www.bohemiancoding.com/sketch -->
    <title>Mars_logo</title>
    <desc>Created with Sketch.</desc>
    <defs></defs>
    <g id="Page-1" stroke="none" stroke-width="1" fill="none" fill-rule="evenodd">
        <g id="Desktop-HD-Copy-7" transform="translate(-269.000000, -70.000000)" fill="#FFFFFF">
            <g id="Mars_logo" transform="translate(269.000000, 70.000000)">
                <path d="M0.2828,19.6078571 L0.2828,18.4992857 C2.17982807,18.4717857 3.78980351,17.8071429 3.78980351,15.8953571 L3.78980351,3.32357143 C3.78980351,1.91107143 2.60898947,1.69035714 0.497557895,1.66214286 L0.497557895,0.554642857 L10.9115439,0.554642857 L15.9572912,13.4582143 L16.0285228,13.4582143 L21.1100632,0.554642857 L31.5959895,0.554642857 L31.5959895,1.66214286 C28.9834561,1.66214286 28.1240702,2.10571429 28.1240702,3.49035714 L28.1240702,16.6710714 C28.1240702,18.0564286 28.9834561,18.4992857 31.5959895,18.4992857 L31.5959895,19.6078571 L19.1772421,19.6078571 L19.1772421,18.4992857 C21.5395789,18.4992857 22.3982561,18.0564286 22.3982561,16.6710714 L22.3982561,2.60392857 L22.3273789,2.60392857 L15.4919825,19.6078571 L12.413786,19.6078571 L5.86508772,2.60392857 L5.79421053,2.60392857 L5.79421053,15.8953571 C5.79421053,17.8071429 7.40418596,18.4717857 9.55141053,18.4992857 L9.55141053,19.6078571 L0.2828,19.6078571" id="Fill-1"></path>
                <path d="M42.2516667,6.01035714 L39.2096175,11.8532143 L45.5081193,11.8532143 L42.2516667,6.01035714 Z M30.5849263,19.6078571 L30.5849263,18.4992857 C33.2694,18.1117857 34.1277228,17.2807143 35.3801228,14.9832143 L43.3247474,0.2225 L45.2217754,0.2225 L54.3833614,16.6442857 C55.1346596,17.9735714 55.9224596,18.3882143 57.782986,18.4992857 L57.782986,19.6078571 L44.8642,19.6078571 L44.8642,18.4992857 L46.2955649,18.4992857 C48.1560912,18.4992857 48.4427895,18.1667857 48.4427895,17.5857143 C48.4427895,17.2257143 48.2641789,16.8653571 48.0487123,16.4771429 L46.2955649,13.2932143 L38.4225263,13.2932143 L37.2771509,15.4814286 C37.098186,15.8407143 36.8479895,16.4503571 36.8479895,17.2257143 C36.8479895,18.0007143 37.4922632,18.4992857 38.8878351,18.4992857 L40.6420456,18.4992857 L40.6420456,19.6078571 L30.5849263,19.6078571 L30.5849263,19.6078571 Z" id="Fill-2"></path>
                <path d="M65.9724912,9.47178571 C70.0681298,9.33357143 72.5853333,8.8625 72.5853333,5.67821429 C72.5853333,3.37964286 71.0072526,1.82857143 68.4135018,1.82857143 C67.0990842,1.82857143 65.9724912,2.21642857 65.9724912,3.49035714 L65.9724912,9.47178571 Z M81.5286175,15.3967857 C81.5286175,18.1396429 79.9877474,19.94 76.0423684,19.94 C72.2093298,19.94 70.7056702,18.4435714 70.4430702,15.1764286 C70.1808246,11.7982143 70.0295018,10.8832143 65.9724912,10.4678571 L65.9724912,16.2839286 C65.9724912,17.8617857 66.4611895,18.4992857 69.5787228,18.4992857 L69.5787228,19.6078571 L56.2772,19.6078571 L56.2772,18.4992857 C59.0580667,18.4992857 59.9599789,18.0564286 59.9599789,16.6710714 L59.9599789,3.49035714 C59.9599789,2.10571429 59.0580667,1.66214286 56.2772,1.66214286 L56.2772,0.554642857 L69.4291719,0.554642857 C75.8169789,0.554642857 79.047207,2.4375 79.047207,5.65035714 C79.047207,9.27785714 74.163414,10.1921429 69.9554351,10.2475 L69.9554351,10.3025 C74.5394175,10.7457143 75.5919439,12.5460714 76.4548737,14.4560714 C77.6204491,17.1428571 77.846193,17.4471429 78.7473965,17.4471429 C79.6875825,17.4471429 79.9133263,16.3392857 80.0249579,15.3967857 L81.5286175,15.3967857 L81.5286175,15.3967857 Z" id="Fill-3"></path>
                <path d="M81.8830035,12.2967857 L83.457186,12.2967857 C84.4235965,15.315 86.8210175,18.6660714 91.3660175,18.6660714 C93.8357333,18.6660714 95.9468105,17.7789286 95.9468105,15.4525 C95.9468105,11.4382143 82.0977614,12.8214286 82.0977614,6.48107143 C82.0977614,2.49285714 85.9269018,0.2225 90.4350456,0.2225 C94.3361263,0.2225 95.6250281,1.69035714 96.5907298,1.69035714 C97.3072982,1.69035714 97.5918702,1.05357143 97.9873649,0.554642857 L99.4888982,0.554642857 L99.4888982,7.14607143 L98.0575333,7.14607143 C97.0198912,4.1275 94.7298491,1.49571429 90.9726491,1.49571429 C88.7173368,1.49571429 86.8210175,2.465 86.8210175,4.29285714 C86.8210175,8.61321429 100.885179,6.48107143 100.885179,13.6528571 C100.885179,17.7789286 96.0541895,19.94 92.0822316,19.94 C87.6800491,19.94 85.9977789,18.4992857 84.8531123,18.4992857 C84.1372526,18.4992857 83.5992947,19.2475 83.314014,19.6078571 L81.8830035,19.6078571 L81.8830035,12.2967857" id="Fill-4"></path>
            </g>
        </g>
    </g>
</svg>