<?xml version="1.0" encoding="UTF-8"?>
<svg width="566px" height="8px" viewBox="0 0 566 8" version="1.1" xmlns="http://www.w3.org/2000/svg" xmlns:xlink="http://www.w3.org/1999/xlink">
    <!-- Generator: Sketch 41 (35326) - http://www.bohemiancoding.com/sketch -->
    <title>Group 13</title>
    <desc>Created with Sketch.</desc>
    <defs></defs>
    <g id="Page-1" stroke="none" stroke-width="1" fill="none" fill-rule="evenodd">
        <g id="Desktop-HD-Copy-7" transform="translate(-423.000000, -3580.000000)" fill="#FFFFFF">
            <g id="Group-25" transform="translate(0.000000, 3331.000000)">
                <g id="Group-32" transform="translate(269.000000, 224.000000)">
                    <g id="Group-13" transform="translate(154.000000, 25.000000)">
                        <path d="M60.263065,2.5605105 C60.2868015,2.69663788 60.3216913,2.91369813 60.3660185,3.12875651 C60.3731681,3.16278836 60.4192112,3.19796413 60.4555309,3.21426509 C60.4884188,3.22913615 60.564204,3.22799223 60.5667778,3.21884081 C60.7080529,2.70321546 60.9368384,2.20246117 60.8673448,1.64994416 C60.8593373,1.58645618 60.7569558,1.52439811 60.6863182,1.48150083 C60.5893704,1.4220166 60.5224506,1.46634379 60.4615365,1.56157576 C60.2805099,1.84412587 60.343426,2.17071718 60.263065,2.5605105 M61.7430213,2.8542139 C61.7049857,3.00492635 61.6815352,3.04925355 61.685539,3.09072092 C61.6932605,3.17451361 61.6901147,3.28776244 61.7404475,3.33008776 C61.7822008,3.36497755 61.9257637,3.34553078 61.9706629,3.29862975 C62.2151774,3.04496382 62.4468227,2.77900066 62.6738924,2.50931974 C62.7448159,2.42495508 62.7024906,2.34773997 62.617268,2.27738843 C62.2231849,1.95194104 61.937489,2.00713554 61.8293878,2.43982614 C61.7864906,2.6125592 61.7564625,2.78843806 61.7430213,2.8542139 M65.0229476,3.58060789 C65.0043588,3.5425723 64.9960653,3.48623387 64.9657512,3.46878898 C64.7764312,3.35811398 64.5876832,3.24400721 64.3863519,3.16021452 C64.3308714,3.13704999 64.1936001,3.19167253 64.1627141,3.24801096 C63.9688184,3.60548832 63.9413641,4.00071529 63.9493716,4.3985161 C63.9502295,4.43254794 63.9914109,4.47859102 64.0251568,4.49546396 C64.0617625,4.51319483 64.1283963,4.52291822 64.1541346,4.50232752 C64.4292492,4.28097754 64.7046498,4.05848363 64.9657512,3.82111866 C65.016084,3.77536156 65.0055027,3.6626847 65.0229476,3.58060789 M62.8148814,4.58840807 C62.8148814,4.39422637 62.8411918,4.24294195 62.6899074,4.20176056 C62.6249895,4.18431566 62.5166023,4.25123542 62.4551162,4.30871778 C61.8045074,4.9164293 61.2977475,5.68743647 60.438086,6.05778301 C60.3219773,6.10754386 60.2876595,6.43670902 60.3645886,6.55453355 C60.4603925,6.70095628 60.595376,6.66549453 60.721494,6.60944208 C61.1736314,6.40954074 61.621765,6.20048798 62.0747603,6.00258851 C62.3861946,5.86703309 62.58438,5.65454855 62.6435783,5.30822448 C62.6890494,5.04340526 62.7671225,4.78401968 62.8148814,4.58840807 M26.5226358,3.6909969 C25.8276998,3.71244555 24.640303,3.75505685 23.4529062,3.78479896 C21.1681969,3.84199534 18.8829157,3.87087951 16.5990643,3.95038248 C13.4478299,4.06019952 10.2980253,4.21091198 7.14736288,4.33445615 C5.00078282,4.41882081 2.8536308,4.48974432 0.706764762,4.55580613 C0.533173756,4.56095381 0.340421963,4.51033501 0.187993616,4.42825821 C0.0913317377,4.37620951 0.0061091349,4.21920545 0.000389497124,4.1048127 C-0.00561612254,3.98698816 0.0584438205,3.81682893 0.149958025,3.7541989 C0.292377005,3.65667908 0.481697016,3.59061726 0.65500204,3.58060789 C2.38891023,3.48537593 4.12281842,3.38671217 5.85787054,3.32322419 C10.2422589,3.16278836 14.6269332,3.00235252 19.0127514,2.87737843 C21.9818154,2.79272779 24.9525953,2.7609838 27.9228032,2.72066036 C29.9795849,2.69234815 32.0366526,2.67547522 34.0937204,2.67833504 C38.3445551,2.68434066 42.5973918,2.64144337 46.8465107,2.74239498 C50.3169009,2.82475776 53.790437,2.94286828 57.2508178,3.26917362 C57.7507142,3.31607465 58.2477507,3.39500565 58.7470751,3.44877024 C59.0659449,3.48337405 59.2515471,3.3152167 59.2621284,2.9694646 C59.2824331,2.28396601 59.284721,1.59846742 59.301308,0.912968837 C59.3055977,0.731942301 59.3261884,0.55005782 59.3567884,0.371605121 C59.3891044,0.182285111 59.6828078,-0.0313433597 59.8758456,0.00383241265 C60.0971955,0.044155859 60.3254091,0.0873391241 60.5296002,0.176565473 C61.4919292,0.598102777 62.4531143,1.02278588 63.4034322,1.47034754 C64.6423057,2.05432255 65.8720278,2.65860229 67.1026079,3.26088014 C67.305941,3.36040184 67.5006947,3.48366003 67.684581,3.61635563 C67.8776188,3.75620077 67.8847684,4.21491572 67.700596,4.36191041 C67.559321,4.47458728 67.4111824,4.58755012 67.2493166,4.66447925 C65.5176963,5.49039495 63.7820722,6.30773118 62.0493079,7.13050108 C61.636922,7.32611269 61.2359754,7.54631874 60.8192998,7.73106304 C60.5710675,7.84145205 60.3053904,7.91723725 60.0417151,7.98615889 C59.7788977,8.05422258 59.4448709,7.86261471 59.4048334,7.60094129 C59.3424893,7.19713486 59.3033098,6.78760879 59.2858649,6.37922666 C59.2644163,5.87818639 59.2872948,5.37514425 59.2667041,4.873818 C59.2586967,4.68392602 59.1348665,4.52863786 58.9289595,4.50146958 C58.1141971,4.39422637 57.3005787,4.25380926 56.4818125,4.20347645 C54.3838494,4.0747846 52.2821685,4.00958073 50.1842053,3.87974495 C45.3439619,3.57974995 40.4979988,3.66154077 35.6537516,3.63437249 C32.7741999,3.61807152 29.8946483,3.66754639 26.5226358,3.6909969" id="Fill-61"></path>
                        <path d="M558.263065,2.5605105 C558.286802,2.69663788 558.321691,2.91369813 558.366019,3.12875651 C558.373168,3.16278836 558.419211,3.19796413 558.455531,3.21426509 C558.488419,3.22913615 558.564204,3.22799223 558.566778,3.21884081 C558.708053,2.70321546 558.936838,2.20246117 558.867345,1.64994416 C558.859337,1.58645618 558.756956,1.52439811 558.686318,1.48150083 C558.58937,1.4220166 558.522451,1.46634379 558.461536,1.56157576 C558.28051,1.84412587 558.343426,2.17071718 558.263065,2.5605105 M559.743021,2.8542139 C559.704986,3.00492635 559.681535,3.04925355 559.685539,3.09072092 C559.69326,3.17451361 559.690115,3.28776244 559.740447,3.33008776 C559.782201,3.36497755 559.925764,3.34553078 559.970663,3.29862975 C560.215177,3.04496382 560.446823,2.77900066 560.673892,2.50931974 C560.744816,2.42495508 560.702491,2.34773997 560.617268,2.27738843 C560.223185,1.95194104 559.937489,2.00713554 559.829388,2.43982614 C559.786491,2.6125592 559.756462,2.78843806 559.743021,2.8542139 M563.022948,3.58060789 C563.004359,3.5425723 562.996065,3.48623387 562.965751,3.46878898 C562.776431,3.35811398 562.587683,3.24400721 562.386352,3.16021452 C562.330871,3.13704999 562.1936,3.19167253 562.162714,3.24801096 C561.968818,3.60548832 561.941364,4.00071529 561.949372,4.3985161 C561.95023,4.43254794 561.991411,4.47859102 562.025157,4.49546396 C562.061762,4.51319483 562.128396,4.52291822 562.154135,4.50232752 C562.429249,4.28097754 562.70465,4.05848363 562.965751,3.82111866 C563.016084,3.77536156 563.005503,3.6626847 563.022948,3.58060789 M560.814881,4.58840807 C560.814881,4.39422637 560.841192,4.24294195 560.689907,4.20176056 C560.624989,4.18431566 560.516602,4.25123542 560.455116,4.30871778 C559.804507,4.9164293 559.297748,5.68743647 558.438086,6.05778301 C558.321977,6.10754386 558.287659,6.43670902 558.364589,6.55453355 C558.460393,6.70095628 558.595376,6.66549453 558.721494,6.60944208 C559.173631,6.40954074 559.621765,6.20048798 560.07476,6.00258851 C560.386195,5.86703309 560.58438,5.65454855 560.643578,5.30822448 C560.689049,5.04340526 560.767122,4.78401968 560.814881,4.58840807 M524.522636,3.6909969 C523.8277,3.71244555 522.640303,3.75505685 521.452906,3.78479896 C519.168197,3.84199534 516.882916,3.87087951 514.599064,3.95038248 C511.44783,4.06019952 508.298025,4.21091198 505.147363,4.33445615 C503.000783,4.41882081 500.853631,4.48974432 498.706765,4.55580613 C498.533174,4.56095381 498.340422,4.51033501 498.187994,4.42825821 C498.091332,4.37620951 498.006109,4.21920545 498.000389,4.1048127 C497.994384,3.98698816 498.058444,3.81682893 498.149958,3.7541989 C498.292377,3.65667908 498.481697,3.59061726 498.655002,3.58060789 C500.38891,3.48537593 502.122818,3.38671217 503.857871,3.32322419 C508.242259,3.16278836 512.626933,3.00235252 517.012751,2.87737843 C519.981815,2.79272779 522.952595,2.7609838 525.922803,2.72066036 C527.979585,2.69234815 530.036653,2.67547522 532.09372,2.67833504 C536.344555,2.68434066 540.597392,2.64144337 544.846511,2.74239498 C548.316901,2.82475776 551.790437,2.94286828 555.250818,3.26917362 C555.750714,3.31607465 556.247751,3.39500565 556.747075,3.44877024 C557.065945,3.48337405 557.251547,3.3152167 557.262128,2.9694646 C557.282433,2.28396601 557.284721,1.59846742 557.301308,0.912968837 C557.305598,0.731942301 557.326188,0.55005782 557.356788,0.371605121 C557.389104,0.182285111 557.682808,-0.0313433597 557.875846,0.00383241265 C558.097196,0.044155859 558.325409,0.0873391241 558.5296,0.176565473 C559.491929,0.598102777 560.453114,1.02278588 561.403432,1.47034754 C562.642306,2.05432255 563.872028,2.65860229 565.102608,3.26088014 C565.305941,3.36040184 565.500695,3.48366003 565.684581,3.61635563 C565.877619,3.75620077 565.884768,4.21491572 565.700596,4.36191041 C565.559321,4.47458728 565.411182,4.58755012 565.249317,4.66447925 C563.517696,5.49039495 561.782072,6.30773118 560.049308,7.13050108 C559.636922,7.32611269 559.235975,7.54631874 558.8193,7.73106304 C558.571068,7.84145205 558.30539,7.91723725 558.041715,7.98615889 C557.778898,8.05422258 557.444871,7.86261471 557.404833,7.60094129 C557.342489,7.19713486 557.30331,6.78760879 557.285865,6.37922666 C557.264416,5.87818639 557.287295,5.37514425 557.266704,4.873818 C557.258697,4.68392602 557.134866,4.52863786 556.92896,4.50146958 C556.114197,4.39422637 555.300579,4.25380926 554.481813,4.20347645 C552.383849,4.0747846 550.282168,4.00958073 548.184205,3.87974495 C543.343962,3.57974995 538.497999,3.66154077 533.653752,3.63437249 C530.7742,3.61807152 527.894648,3.66754639 524.522636,3.6909969" id="Fill-61-Copy-2"></path>
                        <path d="M307.521993,2.5605105 C307.545438,2.69663788 307.579899,2.91369813 307.623681,3.12875651 C307.630742,3.16278836 307.676219,3.19796413 307.712092,3.21426509 C307.744576,3.22913615 307.819429,3.22799223 307.821971,3.21884081 C307.961509,2.70321546 308.187481,2.20246117 308.118842,1.64994416 C308.110933,1.58645618 308.009811,1.52439811 307.940042,1.48150083 C307.844286,1.4220166 307.778189,1.46634379 307.718024,1.56157576 C307.539224,1.84412587 307.601366,2.17071718 307.521993,2.5605105 M308.98375,2.8542139 C308.946182,3.00492635 308.92302,3.04925355 308.926975,3.09072092 C308.934601,3.17451361 308.931494,3.28776244 308.981208,3.33008776 C309.022448,3.36497755 309.164245,3.34553078 309.208592,3.29862975 C309.4501,3.04496382 309.678897,2.77900066 309.903174,2.50931974 C309.973225,2.42495508 309.931421,2.34773997 309.847246,2.27738843 C309.458009,1.95194104 309.175827,2.00713554 309.069055,2.43982614 C309.026685,2.6125592 308.997026,2.78843806 308.98375,2.8542139 M312.223342,3.58060789 C312.204982,3.5425723 312.196791,3.48623387 312.166849,3.46878898 C311.979857,3.35811398 311.793431,3.24400721 311.594575,3.16021452 C311.539777,3.13704999 311.404194,3.19167253 311.373687,3.24801096 C311.182176,3.60548832 311.155059,4.00071529 311.162968,4.3985161 C311.163816,4.43254794 311.204491,4.47859102 311.237822,4.49546396 C311.273977,4.51319483 311.339792,4.52291822 311.365213,4.50232752 C311.636945,4.28097754 311.908959,4.05848363 312.166849,3.82111866 C312.216563,3.77536156 312.206112,3.6626847 312.223342,3.58060789 M310.042429,4.58840807 C310.042429,4.39422637 310.068416,4.24294195 309.918992,4.20176056 C309.854873,4.18431566 309.747818,4.25123542 309.687088,4.30871778 C309.04448,4.9164293 308.543952,5.68743647 307.694862,6.05778301 C307.580181,6.10754386 307.546285,6.43670902 307.622269,6.55453355 C307.716894,6.70095628 307.850218,6.66549453 307.974785,6.60944208 C308.421362,6.40954074 308.863985,6.20048798 309.31141,6.00258851 C309.619014,5.86703309 309.814763,5.65454855 309.873233,5.30822448 C309.918145,5.04340526 309.995258,4.78401968 310.042429,4.58840807 M271.164499,3.78479896 C268.907886,3.84199534 266.650707,3.87087951 264.394941,3.95038248 C261.282458,4.06019952 258.171388,4.21091198 255.05947,4.33445615 C252.939287,4.41882081 250.818539,4.48974432 248.698073,4.55580613 C248.526617,4.56095381 248.336236,4.51033501 248.185682,4.42825821 C248.090209,4.37620951 248.006034,4.21920545 248.000385,4.1048127 C247.994453,3.98698816 248.057725,3.81682893 248.148114,3.7541989 C248.288782,3.65667908 248.475773,3.59061726 248.646947,3.58060789 C250.359533,3.48537593 252.072119,3.38671217 253.785835,3.32322419 C258.116307,3.16278836 262.447062,3.00235252 266.778946,2.87737843 C269.711499,2.79272779 272.645746,2.7609838 275.579429,2.72066036 C277.610918,2.69234815 279.642689,2.67547522 281.67446,2.67833504 C285.873022,2.68434066 290.07356,2.64144337 294.270426,2.74239498 C297.69814,2.82475776 301.128961,2.94286828 304.546789,3.26917362 C305.040538,3.31607465 305.531462,3.39500565 306.024646,3.44877024 C306.339595,3.48337405 306.522914,3.3152167 306.533366,2.9694646 C306.553421,2.28396601 306.55568,1.59846742 306.572063,0.912968837 C306.5763,0.731942301 306.596638,0.55005782 306.626862,0.371605121 C306.65878,0.182285111 306.948872,-0.0313433597 307.139536,0.00383241265 C307.358164,0.044155859 307.583571,0.0873391241 307.785251,0.176565473 C308.735746,0.598102777 309.685111,1.02278588 310.623743,1.47034754 C311.847381,2.05432255 313.061981,2.65860229 314.277429,3.26088014 C314.478261,3.36040184 314.67062,3.48366003 314.852245,3.61635563 C315.042909,3.75620077 315.049971,4.21491572 314.868063,4.36191041 C314.728525,4.47458728 314.582208,4.58755012 314.422333,4.66447925 C312.712007,5.49039495 310.997726,6.30773118 309.28627,7.13050108 C308.878956,7.32611269 308.48294,7.54631874 308.071388,7.73106304 C307.826208,7.84145205 307.563798,7.91723725 307.303365,7.98615889 C307.04378,8.05422258 306.713861,7.86261471 306.674316,7.60094129 C306.612738,7.19713486 306.574041,6.78760879 306.55681,6.37922666 C306.535625,5.87818639 306.558223,5.37514425 306.537885,4.873818 C306.529976,4.68392602 306.407669,4.52863786 306.204294,4.50146958 C305.399551,4.39422637 304.595938,4.25380926 303.78724,4.20347645 C301.715076,4.0747846 299.63924,4.00958073 297.567076,3.87974495 C292.786355,3.57974995 287.999984,3.66154077 283.215307,3.63437249 C280.371166,3.61807152 277.527026,3.66754639 274.19648,3.6909969 C273.510089,3.71244555 272.337294,3.75505685 271.164499,3.78479896 Z" id="Fill-61-Copy" transform="translate(281.500000, 4.000000) scale(1, -1) translate(-281.500000, -4.000000) "></path>
                    </g>
                </g>
            </g>
        </g>
    </g>
</svg>