<?xml version="1.0" encoding="UTF-8"?>
<svg width="68px" height="8px" viewBox="0 0 68 8" version="1.1" xmlns="http://www.w3.org/2000/svg" xmlns:xlink="http://www.w3.org/1999/xlink">
    <!-- Generator: Sketch 41 (35326) - http://www.bohemiancoding.com/sketch -->
    <title>Fill 61</title>
    <desc>Created with Sketch.</desc>
    <defs></defs>
    <g id="Page-1" stroke="none" stroke-width="1" fill="none" fill-rule="evenodd">
        <g id="Desktop-HD-Copy-7" transform="translate(-451.000000, -3580.000000)" fill="#FFFFFF">
            <g id="Group-25" transform="translate(0.000000, 3331.000000)">
                <g id="Group-32" transform="translate(269.000000, 224.000000)">
                    <g id="Group-13" transform="translate(182.000000, 25.000000)">
                        <path d="M60.263065,2.5605105 C60.2868015,2.69663788 60.3216913,2.91369813 60.3660185,3.12875651 C60.3731681,3.16278836 60.4192112,3.19796413 60.4555309,3.21426509 C60.4884188,3.22913615 60.564204,3.22799223 60.5667778,3.21884081 C60.7080529,2.70321546 60.9368384,2.20246117 60.8673448,1.64994416 C60.8593373,1.58645618 60.7569558,1.52439811 60.6863182,1.48150083 C60.5893704,1.4220166 60.5224506,1.46634379 60.4615365,1.56157576 C60.2805099,1.84412587 60.343426,2.17071718 60.263065,2.5605105 M61.7430213,2.8542139 C61.7049857,3.00492635 61.6815352,3.04925355 61.685539,3.09072092 C61.6932605,3.17451361 61.6901147,3.28776244 61.7404475,3.33008776 C61.7822008,3.36497755 61.9257637,3.34553078 61.9706629,3.29862975 C62.2151774,3.04496382 62.4468227,2.77900066 62.6738924,2.50931974 C62.7448159,2.42495508 62.7024906,2.34773997 62.617268,2.27738843 C62.2231849,1.95194104 61.937489,2.00713554 61.8293878,2.43982614 C61.7864906,2.6125592 61.7564625,2.78843806 61.7430213,2.8542139 M65.0229476,3.58060789 C65.0043588,3.5425723 64.9960653,3.48623387 64.9657512,3.46878898 C64.7764312,3.35811398 64.5876832,3.24400721 64.3863519,3.16021452 C64.3308714,3.13704999 64.1936001,3.19167253 64.1627141,3.24801096 C63.9688184,3.60548832 63.9413641,4.00071529 63.9493716,4.3985161 C63.9502295,4.43254794 63.9914109,4.47859102 64.0251568,4.49546396 C64.0617625,4.51319483 64.1283963,4.52291822 64.1541346,4.50232752 C64.4292492,4.28097754 64.7046498,4.05848363 64.9657512,3.82111866 C65.016084,3.77536156 65.0055027,3.6626847 65.0229476,3.58060789 M62.8148814,4.58840807 C62.8148814,4.39422637 62.8411918,4.24294195 62.6899074,4.20176056 C62.6249895,4.18431566 62.5166023,4.25123542 62.4551162,4.30871778 C61.8045074,4.9164293 61.2977475,5.68743647 60.438086,6.05778301 C60.3219773,6.10754386 60.2876595,6.43670902 60.3645886,6.55453355 C60.4603925,6.70095628 60.595376,6.66549453 60.721494,6.60944208 C61.1736314,6.40954074 61.621765,6.20048798 62.0747603,6.00258851 C62.3861946,5.86703309 62.58438,5.65454855 62.6435783,5.30822448 C62.6890494,5.04340526 62.7671225,4.78401968 62.8148814,4.58840807 M26.5226358,3.6909969 C25.8276998,3.71244555 24.640303,3.75505685 23.4529062,3.78479896 C21.1681969,3.84199534 18.8829157,3.87087951 16.5990643,3.95038248 C13.4478299,4.06019952 10.2980253,4.21091198 7.14736288,4.33445615 C5.00078282,4.41882081 2.8536308,4.48974432 0.706764762,4.55580613 C0.533173756,4.56095381 0.340421963,4.51033501 0.187993616,4.42825821 C0.0913317377,4.37620951 0.0061091349,4.21920545 0.000389497124,4.1048127 C-0.00561612254,3.98698816 0.0584438205,3.81682893 0.149958025,3.7541989 C0.292377005,3.65667908 0.481697016,3.59061726 0.65500204,3.58060789 C2.38891023,3.48537593 4.12281842,3.38671217 5.85787054,3.32322419 C10.2422589,3.16278836 14.6269332,3.00235252 19.0127514,2.87737843 C21.9818154,2.79272779 24.9525953,2.7609838 27.9228032,2.72066036 C29.9795849,2.69234815 32.0366526,2.67547522 34.0937204,2.67833504 C38.3445551,2.68434066 42.5973918,2.64144337 46.8465107,2.74239498 C50.3169009,2.82475776 53.790437,2.94286828 57.2508178,3.26917362 C57.7507142,3.31607465 58.2477507,3.39500565 58.7470751,3.44877024 C59.0659449,3.48337405 59.2515471,3.3152167 59.2621284,2.9694646 C59.2824331,2.28396601 59.284721,1.59846742 59.301308,0.912968837 C59.3055977,0.731942301 59.3261884,0.55005782 59.3567884,0.371605121 C59.3891044,0.182285111 59.6828078,-0.0313433597 59.8758456,0.00383241265 C60.0971955,0.044155859 60.3254091,0.0873391241 60.5296002,0.176565473 C61.4919292,0.598102777 62.4531143,1.02278588 63.4034322,1.47034754 C64.6423057,2.05432255 65.8720278,2.65860229 67.1026079,3.26088014 C67.305941,3.36040184 67.5006947,3.48366003 67.684581,3.61635563 C67.8776188,3.75620077 67.8847684,4.21491572 67.700596,4.36191041 C67.559321,4.47458728 67.4111824,4.58755012 67.2493166,4.66447925 C65.5176963,5.49039495 63.7820722,6.30773118 62.0493079,7.13050108 C61.636922,7.32611269 61.2359754,7.54631874 60.8192998,7.73106304 C60.5710675,7.84145205 60.3053904,7.91723725 60.0417151,7.98615889 C59.7788977,8.05422258 59.4448709,7.86261471 59.4048334,7.60094129 C59.3424893,7.19713486 59.3033098,6.78760879 59.2858649,6.37922666 C59.2644163,5.87818639 59.2872948,5.37514425 59.2667041,4.873818 C59.2586967,4.68392602 59.1348665,4.52863786 58.9289595,4.50146958 C58.1141971,4.39422637 57.3005787,4.25380926 56.4818125,4.20347645 C54.3838494,4.0747846 52.2821685,4.00958073 50.1842053,3.87974495 C45.3439619,3.57974995 40.4979988,3.66154077 35.6537516,3.63437249 C32.7741999,3.61807152 29.8946483,3.66754639 26.5226358,3.6909969" id="Fill-61"></path>
                    </g>
                </g>
            </g>
        </g>
    </g>
</svg>