<?xml version="1.0" encoding="UTF-8"?>
<svg width="32px" height="32px" viewBox="0 0 32 32" version="1.1" xmlns="http://www.w3.org/2000/svg" xmlns:xlink="http://www.w3.org/1999/xlink">
    <!-- Generator: Sketch 41 (35326) - http://www.bohemiancoding.com/sketch -->
    <title>Fill 158</title>
    <desc>Created with Sketch.</desc>
    <defs></defs>
    <g id="Page-1" stroke="none" stroke-width="1" fill="none" fill-rule="evenodd">
        <g id="Desktop-HD-Copy-7" transform="translate(-267.000000, -2795.000000)" fill="#303F9F">
            <g id="Group-18" transform="translate(267.000000, 2724.000000)">
                <g id="Group-5">
                    <g id="Group-31" transform="translate(0.000000, 71.000000)">
                        <path d="M24.594,25.51 C23.15,26.913 21.613,28.37 21.613,28.37 L18.963,23.846 C21.738,23.17 24.137,21.568 25.81,19.388 L28.708,24.334 C28.708,24.334 26.642,24.928 24.594,25.51 L24.594,25.51 Z M16.009,22.008 C10.491,22.008 6.019,17.525 6.019,11.997 C6.019,6.469 10.491,1.986 16.009,1.986 C21.527,1.986 25.999,6.469 25.999,11.997 C25.999,17.525 21.527,22.008 16.009,22.008 L16.009,22.008 Z M10.405,28.37 C10.405,28.37 8.868,26.913 7.424,25.51 C5.376,24.928 3.31,24.334 3.31,24.334 L6.208,19.388 C7.881,21.568 10.28,23.17 13.055,23.846 L10.405,28.37 L10.405,28.37 Z M27.03,17.436 C27.833,15.825 28.297,14.021 28.297,12.106 C28.297,5.42 22.795,0 16.009,0 C9.223,0 3.721,5.42 3.721,12.106 C3.721,14.021 4.185,15.825 4.988,17.436 L0,25.946 C0,25.946 3.163,26.581 6.372,27.241 C8.512,29.623 10.642,32 10.642,32 L15.228,24.174 C15.488,24.19 15.745,24.213 16.009,24.213 C16.273,24.213 16.53,24.19 16.79,24.174 L21.376,32 C21.376,32 23.506,29.623 25.646,27.241 C28.855,26.581 32.018,25.946 32.018,25.946 L27.03,17.436 L27.03,17.436 Z M16.009,17 C13.247,17 11.009,14.762 11.009,12 C11.009,9.238 13.247,7 16.009,7 C18.771,7 21.009,9.238 21.009,12 C21.009,14.762 18.771,17 16.009,17 L16.009,17 Z M16.009,5 C12.143,5 9.009,8.134 9.009,12 C9.009,15.866 12.143,19 16.009,19 C19.875,19 23.009,15.866 23.009,12 C23.009,8.134 19.875,5 16.009,5 L16.009,5 Z" id="Fill-158"></path>
                    </g>
                </g>
            </g>
        </g>
    </g>
</svg>